<?xml version="1.0" encoding="utf-8" ?>
<svg baseProfile="full" height="300mm" version="1.1" viewBox="0,0,200,300" width="200mm" xmlns="http://www.w3.org/2000/svg" xmlns:ev="http://www.w3.org/2001/xml-events" xmlns:xlink="http://www.w3.org/1999/xlink"><defs /><rect fill="#222222" height="300" width="200" x="0" y="0" /><text fill="#FFFFFF" style="font-size:12px; font-family:Arial; font-weight:bold;" x="10" y="20">Over 50km Rides</text><text fill="#FFFFFF" style="font-size:4px; font-family:Arial" x="10" y="280">Rider</text><text fill="#FFFFFF" style="font-size:9px; font-family:Arial" x="10" y="290">Bruce Hu</text><text fill="#FFFFFF" style="font-size:4px; font-family:Arial" x="65" y="280">SPECIAL TRACKS</text><rect fill="yellow" height="2.6" width="2.6" x="65" y="283" /><text fill="#FFFFFF" style="font-size:3px; font-family:Arial" x="70" y="285.5">Over 50.0 km</text><rect fill="red" height="2.6" width="2.6" x="65" y="287" /><text fill="#FFFFFF" style="font-size:3px; font-family:Arial" x="70" y="289.5">Over 100.0 km</text><text fill="#FFFFFF" style="font-size:4px; font-family:Arial" x="120" y="280">STATISTICS</text><text fill="#FFFFFF" style="font-size:3px; font-family:Arial" x="120" y="285">Number: 8</text><text fill="#FFFFFF" style="font-size:3px; font-family:Arial" x="120" y="290">Weekly: 1.0</text><text fill="#FFFFFF" style="font-size:3px; font-family:Arial" x="141" y="285">Total: 101.7 km</text><text fill="#FFFFFF" style="font-size:3px; font-family:Arial" x="141" y="290">Avg: 12.7 km</text><text fill="#FFFFFF" style="font-size:3px; font-family:Arial" x="167" y="285">Min: 10.7 km</text><text fill="#FFFFFF" style="font-size:3px; font-family:Arial" x="167" y="290">Max: 17.3 km</text><polyline fill="none" points="52.942517361429054,39.96503611387743 52.87835019553313,39.78945086229942 54.85469890513923,36.92152990902832 55.20120160095394,36.39476307638688 55.329535932745785,36.10211405267182 55.29103563330136,36.05821665083931 55.047200402827,36.01431923643395 54.5338630756014,35.76556698369677 54.20019381301245,35.82409696186369 54.02052574849222,35.67777197442774 53.73819021851523,35.619241940250504 52.37784630153328,35.19489852330298 51.89017584070098,35.063205499522155 50.86350118636619,34.7266561461729 50.28599669330288,34.59496271950775 50.19616266101366,34.565697498183 50.15766236151103,34.477901800652035 49.96516086376505,34.40473868092522 49.14382114034379,34.17061646278307 48.86148561030859,34.155983812277555 48.4893160481588,34.024289894572576 48.04014588688733,33.81943246406445 45.57612671639072,33.05853103575646 45.30662461963948,33.0 45.19112372107338,33.01463276099821 45.04995595611399,33.16096029452456 44.1644490667386,34.565697498183 43.88211353676161,34.94614493883273 43.7666126381373,34.97541008735425 43.71527890540892,34.91687978466507 43.59977800678462,34.60959532807465 43.48427710816031,34.43400393302727 43.33027591003338,34.258412336566835 43.24044187780237,34.19988175963226 43.07360724644968,34.155983812277555 42.72710455057677,34.17061646278307 42.54743648611475,34.258412336566835 42.34210155525943,34.50716703881335 41.80309736169875,35.37048904543917 41.5335952648893,35.97042180945573 41.328260334033985,36.32160087292141 41.007424504554365,36.61424947693013 40.737922407803126,36.90689752146136 40.5582543432829,37.15564791941142 40.263085380138364,37.49219193197496 39.89091581798857,37.78483829797187 39.63424715434667,38.033587269164855 39.42891222349135,38.37012935143139 39.210743859410286,38.9115215834172 38.8129074308672,39.994300302903866 38.74874026502948,40.40399836162396 38.73590683180373,41.3550789134606 38.67173966590781,41.94035631604493 38.517738467722666,42.27688980924722 38.47923816827824,42.6573180846317 38.49207160144579,43.11090440810949 38.40223756909836,43.491330610908335 38.38940413593082,43.88638759011519 38.286736670532264,44.25218018036685 38.286736670532264,44.76428833838145 38.158402338740416,45.3349211250752 38.13273547240533,45.78849951525626 38.08140173967695,46.00797244737623 38.14556890557287,46.52007473210688 38.09423517284449,46.91512389566924 38.14556890557287,47.07606955898518 38.41507100232411,47.471117287830566 38.5562387672835,47.939320683595724 38.5819056336768,48.62699182523647 38.710239965468645,49.300028675133944 38.74874026502948,49.797488793105 38.710239965468645,50.03158711285505 38.5562387672835,50.30957840269548 38.40223756909836,50.49978267861297 37.876066808763426,50.92408367342432 37.59373127884464,51.08502512249106 37.27289544936502,51.1728112960991 37.05472708528396,51.15818027067871 36.93922618671786,51.08502512249106 36.823725288093556,50.880190521565964 36.4643891590531,49.578021293258644 36.01521899783984,48.26120968758187 35.797050633700565,47.70521916472353 35.604549136071,47.105332388644456 35.45054793788586,45.99334092835488 35.45054793788586,45.46660531227826 35.54038197011687,45.027657581158564 35.707216601469554,44.67649849009467 35.989552131388336,44.22291680534545 36.310387960926164,43.769333776668645 36.862225587596186,42.80363640033465 37.15739455074072,42.48173592114472 37.56806441245135,42.130570990091655 37.734899043804035,42.02814773343562 38.17123577190796,41.94035631604493 38.50490503455512,41.91109249905276 38.851407730428036,42.0135158339981 38.9284083294915,42.057411528003286 38.96690862905234,42.159834765072446 38.889908029988874,42.7158454276796 38.979742062219884,43.43280356435571 38.96690862905234,44.03270473112934 38.979742062219884,44.54481362327351 38.9284083294915,44.85207813633315 38.77440713130636,45.320289541748934 38.65890623268206,46.03723548121343 38.64607279951451,46.40302293235436 38.697406532242894,47.558905533660436 38.63323936640518,48.17342184453446 38.63323936640518,48.61236055649351 38.800073997699656,49.22687263911939 38.87707459676312,49.82675110263517 39.00540892861318,50.441258311184356 39.01824236178072,50.880190521565964 38.979742062219884,51.56784845463699 38.90274146315642,52.25550329934049 39.056742661225144,52.431074254083796 39.09524296084419,52.51885965600377 39.08240952761844,52.67979942877719 38.9284083294915,52.9285241994221 38.710239965468645,53.147986896845396 37.90173367515672,53.45523414471245 36.823725288093556,53.95268076276989 36.68255752307596,53.98194227821659 36.15638676279923,53.95268076276989 35.92538496549241,54.01120378806081 35.54038197011687,54.24529566554702 35.03987807611702,54.68421697121812 33.538366394117475,56.24969271548616 32.806860702927224,57.18604439000774 32.396190841158386,57.63958767411532 32.03685471217614,58.15165105776396 31.664685149968136,58.575930849969154 31.459350219054613,58.956318629789166 31.331015887262765,59.336705464767874 31.318182454095222,59.70246114580368 31.395183053216897,60.72657240544504 31.459350219054613,60.88750355216325 31.716018882696517,61.136214991725865 31.72885231586406,61.25325552941649 31.331015887262765,62.52606560109416 31.164181255968288,63.21367123888922 31.010180057841353,63.74034580976877 30.650843928742688,64.69128141981491 30.355674965656362,65.33498832790065 30.342841532547027,65.56906289640756 30.43267556471983,66.15424775265274 30.43267556471983,66.85646662890213 30.522509597009048,68.1438595403306 30.522509597009048,68.71440521113982 30.6251770624076,69.27031946158968 30.61234362924006,69.50438801608107 30.471175864280667,69.94326559168985 30.342841532547027,70.13344548389432 29.57283554173773,71.09897052512679 29.277666578593198,71.58173076350067 28.379326255992055,72.67890746523335 27.99432326067472,73.0592602208053 26.826480841322336,74.09791101184965 25.530304090178106,75.09266854758607 25.324969159381,75.29747076785134 25.260801993426867,75.42912919339142 25.04263362940401,76.5262783394137 25.00413332984317,77.37473495794984 24.696130933531094,79.11551917156612 24.68329750036355,79.45197098235076 24.747464666259475,79.87619177764282 24.862965564825572,80.06635933904909 25.27363542659441,80.46132198158011 25.517470657010563,80.73925804557803 25.812639620155096,81.1927315939538 25.96664081828203,81.4852944612503 26.10780858329963,81.953393886899 26.595479044073727,82.86033245451108 26.621145910408814,83.06512429128634 26.454311279114336,84.9667497043556 26.325976947322488,85.33244419346738 26.364477246825118,85.69813780984259 26.33881038049003,86.22473508407711 26.28747664776165,86.78058579914796 26.28747664776165,86.97074479141156 26.313143514096737,87.0 26.39014411327662,86.34175645481446 26.39014411327662,85.77127642834967 26.544145311403554,85.06914424928254 26.556978744571097,84.76196040917421 26.53131187823601,84.4694037984591 26.56981217773864,83.86966100016434 26.595479044073727,82.88958844791341 26.505645011842716,82.64091232557257 26.18480918230489,82.12893080284994 25.902473652386107,81.36826938136073 25.69713872153079,81.00256543060823 25.27363542659441,80.46132198158011 24.8116318321554,80.00784626831592 24.72179779986618,79.8469352087559 24.670464067196008,79.56899752595928 24.696130933531094,79.40808600546734 24.798798398987856,79.32031601395283 25.440470057947095,79.02774901244265 26.030807984177954,78.93997880307143 27.07031607173849,78.44261333337636 27.147316670801956,78.354842788729 27.237150703091174,77.74044756843068 27.429652200778946,77.08216424098646 27.699154297530185,76.39462085680861 27.94298952788813,75.91187578572135 28.161157892027404,75.54615880998608 28.49482715461636,75.06341106527543 29.303333444928285,74.02476682046836 29.662669573968742,73.65904533960565 30.99734662467381,71.99134431811399 31.343849320488516,71.4939562879008 31.54918425140204,71.17211611360835 31.934187246719375,70.42602947240812 32.03685471217614,70.20659153342422 32.17802247713553,69.72382696106797 32.396190841158386,69.18254366147448 32.55019203934353,68.50959418920684 32.627192638406996,67.9390477554989 32.66569293796783,67.32461075775791 32.69135980424471,66.65165312253521 32.678526371135376,65.49591463219258 32.79402726975968,64.86683811761031 32.93519503471907,64.34016742059612 33.179030265135225,63.87201416947937 33.371531762823,63.66719667207508 33.769368191366084,63.403859487283626 34.68054194713477,62.906443569489056 35.24521300703054,62.511435660373536 35.45054793788586,62.30661634344142 35.91255153232487,61.7799368420674 35.989552131388336,61.57511654679547 36.028052430949174,61.150845063850284 35.97671869822079,60.946023927259375 35.80988406686811,60.63879170869768 35.69438316830201,60.463230164241395 35.386380771989934,60.273038263942 35.206712707469705,60.11210647151165 35.168212407967076,59.99506506166654 35.24521300703054,59.54152875376167 35.258046440198086,59.39522643244709 35.51471510378178,58.69297334442672 35.59171570284525,58.502779245522106 35.720050034695305,58.400366940608365 35.91255153232487,58.38573660570546 36.25905422819778,58.42962760615046 36.4643891590531,58.371106269420125 36.631223790347576,58.22480282992183 36.70822438952746,58.034608149609994 36.5798900576774,57.010478887168574 36.64405722351512,56.48378117091488 36.772391555365175,55.986342775431694 36.92639275355032,55.664470011382946 37.19589485024335,55.196290237712674 38.14556890557287,54.01120378806081 38.36373726959573,53.58691134794208 38.68457309913356,53.235771887688315 38.94124176265905,52.796846430021105 39.31341132486705,51.9775155425159 39.493079389445484,51.71415825471922 39.65991402073996,51.27522843507177 40.01925014972221,50.01695597836806 40.10908418201143,49.621914818373625 40.34008597920183,48.04173998556507 40.35291941242758,47.54427416283579 40.39141971198842,47.178489438432734 40.37858627876267,46.85659815800318 40.39141971198842,46.43228589069622 40.35291941242758,46.1396560556168 40.37858627876267,45.671447156128124 40.32725254603429,44.954499503583065 40.35291941242758,44.442391981894616 40.314419112866744,43.90101931049139 40.34008597920183,43.315749403991504 40.404253145097755,42.891427322654636 40.506920610612724,42.35004916638718 40.49408717738697,42.0135158339981 40.89192360598827,40.47715861383767 41.328260334033985,39.20416523586027 42.08543289167574,37.75557368659065 42.6501039515133,36.81910316689755 43.278942177305,35.97042180945573 43.535610840888694,35.546079366104095 43.74094577174401,35.26806126530573 43.98478100221837,34.88761462485127" stroke="#4DD2FF" stroke-linecap="round" stroke-linejoin="round" stroke-width="0.5"><title>2026-01-06 12.4km</title><desc>16954939412</desc></polyline><polyline fill="none" points="167.8591526998789,33.0 167.81159353075782,33.16268147043593 167.50245893135434,33.786292044838774 167.1814345396706,33.94897261317237 167.1338753705495,33.98964272609737 166.8366305634263,34.342116549552884 166.58694492548238,34.789485909903306 166.38481845665956,35.06061816865986 166.05190427269554,35.81978573536617 165.67143091961043,36.17225500977656 165.2909575664671,36.68740083501325 164.98182296712184,37.026311541572795 164.43489252205472,37.48722880266723 164.29221501463326,37.69057417695876 164.00685999979032,38.43617138796253 163.79284373868722,38.95130898946081 163.70961519272532,39.249545692960965 163.68583560816478,39.76468033994024 163.68583560816478,40.41537406171847 163.70961519272532,40.51026664672827 163.87607228470733,40.84916821762454 163.89985186920967,41.093176847251016 163.82851311552804,41.635416743389214 163.8879620769294,42.28610188228777 163.8879620769294,42.97745157139434 163.92363145382842,43.20790071891679 163.6739458158263,44.265250830794685 163.60260706214467,44.73970024207665 163.57882747758413,45.09214734878333 163.66205602354603,46.041039052419364 163.5907172698062,46.66459300128918 163.6263866467052,47.233922473707935 163.95930083066924,48.84701023613161 163.9711906229495,49.375665259722155 163.89985186920967,50.066980394753045 163.82851311552804,50.47363478272746 163.85229270008858,50.622741099548875 164.03063958435087,50.812512548902305 164.05441916896962,50.8531778264296 164.00685999979032,50.961618509551045 163.7215049849474,51.32760520305601 163.5431581007433,51.46315559071081 162.77032160223462,51.7613659875351 161.86669738864293,52.20868040736241 161.52189341239864,52.34422995308705 161.31976694357581,52.493334303828306 161.10575068247272,52.7373229033401 160.82039566762978,53.238853706701775 160.6420487833675,53.862376016841154 160.57071002968587,54.24190999437997 160.52315086056478,54.716326038425905 160.4755916914437,54.878982602618635 160.17834688426228,55.17718581930967 159.6195266469731,55.65159873579978 159.29850225528935,55.963354931504 158.57322492590174,56.5462016336096 158.1689719882561,56.83084682720073 157.6458211277495,57.318808687618 157.5269232048886,57.53568008689035 157.37235590524506,58.213401073007844 156.8373152524,60.0025689224567 156.68274795269826,60.54473654385947 156.64707857585745,60.8022654382803 156.51629086077446,61.22244315734133 156.0763685462298,62.320321002043784 155.92180124658626,62.659170473212725 155.88613186968723,62.90314159140689 155.9455808311468,63.55372918922512 156.01691958482843,64.74646537149965 156.04069916938897,65.5190277761285 156.12392771535087,66.48133646797214 156.05258896172745,66.79306887020357 155.90991145424778,67.06413996771153 155.10140557895647,68.0942054160696 154.83983014867408,68.50080814023386 154.17400178074604,69.23269010796503 154.22156094992533,69.40888335133786 154.0669936501654,69.57152307416254 152.92557359091006,70.64222993017756 152.41431252268376,71.07593167443702 151.39179038628936,71.8484596235503 151.21344350202708,72.02464961957594 151.14210474828724,72.17373329152178 151.1183251637267,72.62098336775671 151.01131703320425,73.1359968612378 150.9875374486437,73.7594317477051 150.93997827952262,74.12535964485141 150.70218243385898,75.3180069837399 150.65462326467969,75.86011609769776 150.67840284924023,76.25314391060965 150.76163139526034,76.4022231412091 151.2015537097468,76.79524945306184 151.77226373937447,77.51353610779915 151.8436024930561,77.70327159843873 151.93872083135648,78.0962943079503 152.08139833877794,78.40800120035419 152.29541459988104,78.73325983659015 152.44998189958278,79.0449653302785 152.47376148408512,79.2482511530834 152.33108397672186,80.35954183874128 152.3548635613406,81.44371948961634 152.23596563842148,81.9993573264801 152.16462688473985,82.62275328645774 152.09328813105822,83.30035448589479 152.06950854643947,83.85598505611415 151.86738207761664,85.63127791386796 151.80793311621528,85.97007173828024 151.72470457025338,86.8238285901898 151.73659436253365,87.0 151.760373947036,87.0 151.760373947036,86.66120863327524 151.85549228533637,86.07848559138074 151.8911616622354,85.37379406655964 151.9625004158588,85.0756542916206 152.11706771561876,83.50363421505608 152.24785543075996,81.97225309222995 152.24785543075996,81.61989757580159 152.41431252268376,80.82031835208181 152.36675335356267,80.37309411044407 152.42620231502224,79.77679292988614 152.46187169186305,79.13983208380523 152.4380921073025,78.97720332466997 152.03383916965686,78.28602901964041 151.81982290855376,77.71682412381051 151.5820270628319,77.26959010437713 151.2015537097468,76.78169683975284 150.83297014894197,76.45643373166968 150.70218243385898,76.2666965744138 150.6427334723412,76.0227484281204 150.70218243385898,75.37221798827522 150.8567497335025,74.65392049742513 151.01131703320425,73.74587884449284 151.02320682548452,73.27152641730208 151.24911287880968,72.10596800550411 151.30856184032746,71.98399040914956 151.796043323935,71.64516320254188 151.99816979275784,71.44186649029143 152.44998189958278,71.10303798945097 153.28226735949283,70.41182533944084 154.12644261162495,69.57152307416254 154.89927911013365,68.56857514764124 155.18463412491838,68.1890794892388 155.37487080151914,67.87735015354701 155.90991145424778,67.19967532227747 156.06447875394952,66.92860448366264 156.13581750768935,66.69819386376184 156.14770729996962,66.29158597480273 156.05258896172745,65.70877930232382 155.99314000020968,64.51605120848399 155.95747062342707,64.27208286337554 155.95747062342707,63.74348334336537 155.90991145424778,62.90314159140689 155.95747062342707,62.64561650992255 156.20715626137098,62.11701093094598 156.61140919901663,61.005577393225394 156.7184173295973,60.51762821195007 156.99188255210174,59.69082160205289 157.3961354898056,58.213401073007844 157.49125382810598,57.779660014857654 157.63393133546924,57.413689965585945 157.81227821973152,57.21037286367209 158.2046413650969,56.898619408209925 158.43054741853848,56.69530156815017 158.8466901484062,56.42421066152747 160.43992231448647,55.00097490339249 160.52315086056478,54.86542789604573 160.5944896142464,54.41812185308663 160.6420487833675,53.93015001589083 160.74905691388994,53.537060370857944 160.8560650444706,53.25240856864548 161.18897922843462,52.7373229033401 161.40299548959592,52.520444168912945 161.60512195841875,52.38489479156851 161.8785871809232,52.29001015036192 162.3898482491495,52.032465804266394 162.93677869427484,51.802030993043445 163.329141839582,51.66648092925607 163.69772540038684,51.46315559071081 163.8879620769294,51.259829960690695 164.1019783380325,50.88028800497705 164.25654563779244,50.554965520466794 164.51812106801663,49.85009757777152 164.92237400566228,48.67079145713069 165.02938213624293,48.12857845626422 165.1245004744851,47.50503094308078 165.23150860506576,46.63748201706039 165.23150860506576,44.72614456662268 165.1720596436062,43.451905290508876 165.21961881278548,42.231878234713804 165.3028473588056,41.41852103371639 165.43363507388858,40.91694843462028 165.58820237364853,40.171364265916054 165.9330063498346,39.073314989422215 166.38481845665956,37.9345882411435 166.93174890172668,36.91786020359723 167.37167121621314,36.28070691799803 167.58568747731624,35.874011834617704 167.93049145356053,35.38597619494249 168.4536423140671,34.694589496881235 168.44175252178684,34.64036294662219 168.31096480664564,34.491239826529636 168.01371999958064,34.07098291696457 167.87104249215918,33.9218591980607 167.78781394613907,33.88118906572345 167.58568747731624,33.85407563764602 167.32411204709206,33.86763235236867 167.1814345396706,33.94897261317237 166.63450409466168,34.83015578177583 166.09946344175842,35.88756835616368 165.62387175048934,36.33493284098222 165.2552881896263,36.82296521482931 164.94615359022282,37.134762796602445 164.4824516911758,37.47367243403278 164.32788439147407,37.70413052485674 163.9355212461087,38.775077915299335 163.76906415412668,39.290214285749244 163.70961519272532,39.53422559759929 163.69772540038684,40.45604232017649 163.78095394634875,40.75427585939178 163.9355212461087,41.093176847251016 164.05441916896962,41.201624992347206 165.27906777412863,41.54052491122275 165.3385167356464,41.499856963724596 165.4217452816083,41.07962082330778 165.4693044507876,40.60515916821896 165.79032884241315,39.45288854032697 166.30158991063945,38.097264050738886 166.59883471776266,37.54145426435571 166.84852035576478,36.999198714853264 167.37167121621314,36.30781988207309 168.1563975069439,35.08773136603122 168.4536423140671,34.653919586140546 168.73899732885184,34.27433319002739 168.85789525177097,34.05742622175603 169.13136047427543,33.69139496042044 169.3572665276588,33.325362754258094" stroke="#4DD2FF" stroke-linecap="round" stroke-linejoin="round" stroke-width="0.5"><title>2025-08-25 11.6km</title><desc>15579455674</desc></polyline><polyline fill="none" points="67.0,115.48640330744092 66.62795275589451,115.3349050100951 65.21948818897363,115.03190819808515 64.82086614170112,114.8198102574097 63.970472440938465,114.63801190949744 62.90748031495605,114.36531419222592 62.455708661465906,114.4259137052577 62.16338582674507,114.24411513147061 62.13681102357805,114.122916024382 62.61515748035163,113.30482083914103 64.34251968504395,110.69902210091823 64.42224409454502,110.30512042768532 64.28937007882632,110.12331949028885 64.20964566932525,110.06271915466641 63.492125984164886,109.97181862944853 62.53543307085056,109.72941710156738 62.42913385818247,109.60821626809775 62.48228346451651,109.21431323920842 62.13681102357805,108.91131057625171 61.49901574815158,108.57800731231691 54.93503937008791,106.66908186677028 54.05807086615823,106.45697832977748 52.94192913384177,106.03277082997374 43.69389763777144,103.24510742010898 41.08956692914944,102.51788684583153 39.946850393665954,102.12397500468069 19.35137795272749,95.91222354251659 16.986220472375862,95.27589090779657 14.647637795307674,94.79106518562185 13.29232283460442,94.57895369891776 13.132874015718699,94.91227168569458 13.0,95.6698112609156 13.29232283460442,96.24554012704175 13.425196850323118,96.36674607076566 13.558070866158232,96.39704754948616 13.797244094428606,96.15463563869707 14.514763779588975,96.36674607076566 15.285433070966974,96.48795196818537 16.401574803167023,96.88187081471551 17.092519685043953,97.0636793479789 17.039370078826323,96.45765049822512 17.092519685043953,96.21523863379844 17.225393700762652,96.15463563869707 17.99606299214065,96.27584161728737 24.081692913430743,98.09392573282821 25.80905511812307,98.54844513194985 27.32381889759563,99.06356632968527 32.93110236211214,100.79073129408062 38.299212598474696,102.39668325454113 39.46850393700879,102.7602938892669 39.60137795272749,102.97239990025992 39.44192913384177,104.27533371053869 39.255905511789024,105.00255025230581 38.45866141736042,106.18427357365726 37.84744094486814,106.60848087066552 36.332677165279165,108.97191113192821 35.74803149595391,110.33542057374143 35.48228346451651,110.82022251721355 35.11023622052744,111.2141235503077 34.366141732316464,111.85042418498779 33.117125984164886,113.45632010680856 31.974409448797815,114.36531419222592 31.62893700785935,114.8198102574097 31.070866141701117,116.09239577283734 30.619094488210976,117.21347877956578 30.08759842510335,119.09204141562805 29.98129921266809,120.51610567266471 30.0078740157187,121.12208852250478 30.433070866158232,122.27345274557592 30.459645669325255,122.81883433903567 30.35334645677358,123.84899701093673 30.433070866158232,124.97005258538411 30.486220472492278,127.60603250458371 30.35334645677358,128.42409078154014 30.08759842510335,129.3936385983252 29.848425196716562,130.84795476371073 29.79527559049893,132.27196621111943 29.92814960621763,133.75656708001043 29.848425196716562,135.18056546273874 29.848425196716562,136.21068796532927 30.11417322838679,137.42259250677307 30.592519685043953,140.2402526595979 30.619094488210976,141.421844626253 30.56594488187693,142.57313512742985 30.35334645677358,143.6638275354926 30.35334645677358,143.81531229542452 30.539370078709908,144.14857851239503 30.88484251976479,144.33035993773956 30.85826771648135,144.51214125886327 30.37992125970777,145.08778142146184 30.300196850439534,145.42104630105314 30.486220472492278,144.996890938899 31.017716535483487,144.0576877607964 31.57578740164172,142.90640265023103 32.479330708738416,140.48263085793587 32.71850393700879,139.42222487230902 33.03740157478023,138.301220402529 33.22342519683298,137.27110469245235 33.409448818769306,135.9380088049802 33.51574803155381,134.66550295622437 33.54232283460442,133.45358787546866 33.46259842521977,132.2416681618488 33.51574803155381,129.36334027387784 33.46259842521977,126.84856925488566 33.51574803155381,125.51542953943135 33.595472440938465,124.39437589369481 33.75492125982419,123.24301937405835 34.020669291261584,121.87956545563065 34.44586614170112,120.2131138133118 35.34940944891423,117.45587458397495 36.35925196844619,114.94100909805275 37.82086614170112,112.39582371237339 39.123031496070325,110.45662112912396 39.8671259842813,109.48701538832393 40.61122047237586,108.27500404103193 40.61122047237586,108.00230084906798 39.84055118111428,106.9114857352979 39.309055118006654,106.45697832977748 38.99015748035163,106.39637729313108 38.24606299214065,106.42667781285127 37.900590551202185,106.60848087066552 36.332677165279165,109.0022114055173 35.9872047243407,109.91121826492599 35.42913385818247,110.88082270801533 34.33956692914944,111.82012418378145 33.117125984164886,113.39572040841449 31.73523622052744,114.63801190949744 31.38976377947256,115.15310695767403 30.247047244105488,118.45575531796203 30.08759842510335,119.27383720886428 30.06102362216916,120.0616177750635 30.16732283460442,121.45537859603064 30.539370078709908,122.60674160864437 30.539370078709908,123.18242154663312 30.40649606299121,124.21258303700597 30.539370078709908,125.63662429063697 30.512795275542885,127.24245037059882 30.486220472492278,128.12110648068483 30.11417322838679,129.36334027387784 29.848425196716562,131.06004198041046 29.79527559049893,132.3022642574797 29.95472440950107,133.93835446366575 29.875,135.30175651906757 29.901574803050607,136.4530692442495 30.486220472492278,139.3919275063672 30.645669291378,140.5735226345132 30.645669291378,141.633924769616 30.433070866158232,143.6032336112694 30.486220472492278,143.9062031165813 30.725393700879067,144.08798468089662 30.85826771648135,144.11828159811557 31.017716535483487,144.08798468089662 31.23031496058684,143.8759061791061 31.522637795191258,143.2093728214386 31.814960629912093,142.27016434824327 32.373031496070325,140.96738669869956 32.612204724457115,140.2402526595979 33.117125984164886,137.99824554109364 33.489173228270374,135.21086323112831 33.54232283460442,133.75656708001043 33.46259842521977,132.42345641419524 33.51574803155381,130.81765657832148 33.436023622052744,126.69707638767431 33.75492125982419,122.57644263550173 34.126968503929675,121.51597675358062 34.472440944751725,120.09191698848736 34.87106299214065,118.7284495162894 35.34940944891423,117.30437722799252 35.7214566929033,116.33479243455804 37.262795275542885,113.24422111178865 40.1328740157187,109.06281194402254 41.19586614170112,107.42659334020573 42.84350393700879,105.12375284693553 43.34842519683298,104.30563443308347 43.58759842521977,104.09352931447211 43.853346456657164,104.03292782584322 45.633858267683536,104.66924287783331 47.09547244105488,105.12375284693553 61.126968503929675,109.27491373714292 62.37598425196484,109.8203176962561 62.61515748035163,109.69911689759465 63.41240157489665,109.88091807824094 64.0236220471561,110.2142199719965 64.28937007882632,110.30512042768532 64.44881889759563,110.45662112912396 64.39566929126158,110.69902210091823 64.0236220471561,111.2141235503077 63.46555118111428,111.85042418498779 62.748031496070325,112.88062250442454 60.19685039378237,116.72868661457323 59.42618110240437,117.94066563682281 59.42618110240437,118.12246209048317 59.612204724457115,118.33455782127567 61.020669291378,119.15264002495678 61.180118110147305,119.09204141562805 61.73818897642195,118.39515657545417 61.950787401525304,117.88006679576938 61.97736220469233,117.75886907885433 62.349409448797815,118.00126446629292 61.39271653548349,118.91024551805458 60.59547244105488,120.03131855875836 60.48917322838679,120.09191698848736 60.32972440950107,120.09191698848736" stroke="#4DD2FF" stroke-linecap="round" stroke-linejoin="round" stroke-width="0.5"><title>2025-08-24 11.2km</title><desc>15564515001</desc></polyline><polyline fill="none" points="173.77415914234007,97.66986039237236 174.54209898837144,96.41901963874989 174.5177199455793,96.34952817021986 174.15203430462861,96.2661383641389 174.06670765508898,96.21054513350828 173.93262292002328,96.15495188164641 173.7010220141383,96.11325692875835 173.48161062953295,96.16885019658366 173.26219924498582,96.0298669871263 172.70148126222193,95.82139192383329 171.73850907431915,95.51562795693462 170.20262938237283,95.05698080074217 169.5200161859393,94.90409809380071 168.54485447675688,94.61223066138336 168.2766850067419,94.57053526605887 167.93537840852514,94.4315505285922 167.21619664801983,94.20917467228719 167.13086999842199,94.12578363849025 165.03427232371178,93.5142479288188 164.90018758864608,93.52814649626089 164.80267141776858,93.62543643101526 164.6320181186311,94.00069699808955 164.41260673402576,94.33426113332098 164.02254205039935,94.8485043423425 163.99816300766543,94.9179965283256 163.6080983239226,95.41833928714914 162.21849288832163,97.51698043310898 161.9015653328388,98.11460117799288 161.64558538421988,98.53154442895902 161.3774159142049,99.14305903411878 161.1092464441317,99.82406090830045 160.90202458098065,100.40777426173736 160.74356080323923,101.00538312435674 160.47539133316604,102.39516167881084 160.3900646836264,102.47854796962929 160.25597994861891,102.49244568013819 159.52460866671754,102.15890026175475 158.67134217120474,101.92263846076094 158.4153622224694,101.90874069578422 158.04967658151872,101.97822950730915 157.72055950475624,102.11720703063475 157.45239003462484,102.3395707916643 157.06232535105664,102.74260424177919 156.7453977955156,103.298510615743 156.19686933408957,104.16016129530908 155.97745794954244,104.45200956141343 155.7580465649371,104.93842203653185 155.68490943673532,105.24416618811665 155.6970989581314,105.897344721845 155.80680465046316,106.55052032160165 155.94088938547065,107.20369298744481 156.0262160350103,107.49553514517902 156.2212483768235,107.91245149733732 156.4162807186367,108.49613238232268 156.59912353917025,109.07981092453701 156.9769987014588,110.37223364569945 157.09889391512843,110.62237865217321 157.18422056466807,110.70576022534806 157.31830529967556,110.76134791426011 157.5377166842227,110.73355407250347 157.89121280383551,110.58068784761417 158.1228137097205,110.4417184128688 158.34222509432584,110.35833668831037 158.4519307866576,110.34443972952431 158.73228977801045,110.38613060177886 159.0492173334933,110.53899703116622 159.1101649403572,110.60848171863472 159.1101649403572,110.78914175076352 159.00045924802544,111.34501736504899 158.96389068395365,111.69243854502565 158.9760802052915,111.78971632671892 159.0126487694215,111.85920041661302 159.21987063263077,111.9842716948333 159.2076811112347,112.05375569178432 158.93951164121972,112.37338165030815 158.878564034414,112.52624599085539 158.90294307708973,112.55403949005995 158.7444792993483,112.58183298393851 158.4519307866576,112.6652134337346 157.3061157783377,113.13770174628007 156.92824061599094,113.33225531116477 156.355333111831,113.30446196066623 156.17249029141385,113.36004865629366 155.6970989581314,113.6796717440011 155.22170762496535,114.09657036793942 153.79553362523438,115.58349906148214 153.34452133468585,116.20883836370194 152.7716138305259,116.91755298935459 152.47906531777699,117.32054604031146 152.1133796768263,117.75133048080897 151.9549158991431,117.98756656776823 151.77207307866774,118.59899936421425 151.75988355727168,119.30770234402735 151.80864164273953,119.80796119201113 151.8817787708831,119.96081771906756 152.12556919822237,120.19705021764094 152.1499482409563,120.25263427921163 152.13775871961843,120.3915943401662 151.93053685635095,120.93353730959643 151.71112547186203,121.67002067269641 151.5526616940624,122.26754217087 151.3576293522492,122.85116545081837 151.10164940357208,123.54595201690972 150.82129041221924,124.21294399845647 150.80910089082317,124.44916959192778 150.95537514716852,126.63076429655484 150.99194371129852,127.63122990759439 151.0650808395003,128.07587908186542 150.99194371129852,128.40936507078004 150.8334799335571,128.71505988910212 150.0777296089218,129.70161605777685 149.6876649252372,130.27131446043495 149.0294307715376,131.10501541905978 148.11521666916087,131.99429117623367 147.73734150687233,132.3416630426509 147.23757113091415,132.74461336876266 146.64028458402026,133.1753521385108 146.1039456439321,133.6060896331619 146.0064294730546,133.73114221531432 145.92110282345675,134.05072054821358 145.82358665252104,134.6898751082772 145.7748285671114,135.19008106652473 145.7748285671114,135.67639076632622 145.62855431076605,136.34332714031916 145.5432276611682,136.99636604462285 145.45790101162856,137.4548809709231 145.47009053296642,138.03844333301822 146.0673770798603,138.63589761269395 146.45744176354492,139.14998421558994 146.61590554128634,139.44176229038567 146.79874836176168,139.98363430582685 147.23757113091415,140.78949152036512 147.29851873771986,141.02569020313967 147.12786543858238,143.12367344283848 147.16443400271237,143.40154974946927 146.99378070357488,144.74924231031036 146.7621797976317,146.98610654080403 146.79874836176168,147.0 146.84750644717133,146.56930214739987 147.06691783171846,144.19349431271257 147.20100256678415,142.37340476480313 147.213192088122,141.80375374089635 147.27413969498593,141.42861648307007 147.27413969498593,140.85896176099777 147.1888130454463,140.63665687432513 146.94502261816524,140.2615166080359 146.74999027629383,139.87248123640893 146.6280950626242,139.4556564698578 146.34773607127136,138.98325362443575 145.98205043032067,138.5525320464949 145.59198574663606,138.19128070783336 145.49446957575856,137.99676038474718 145.45790101162856,137.59382460269262 145.49446957575856,137.16309891224955 145.6407438320457,136.46837737013993 145.72607048164355,135.89870323061768 145.81139713118318,135.5791289563931 145.82358665252104,134.91218907978327 146.04299803712638,133.7450369400467 146.1405142080621,133.6060896331619 147.0912968745688,132.91135110829782 147.99332145549124,132.1610297756124 148.29805948963622,131.8831320038007 149.06599933566758,131.10501541905978 149.66328588256147,130.31299962177582 149.93145535251824,129.97951799626753 150.26057242939714,129.50708438499714 150.95537514716852,128.562212560224 151.05289131810423,128.2565174207557 151.08945988223422,127.9647169157106 150.99194371129852,127.43669546651654 150.9675646685646,127.15878867085848 150.99194371129852,126.72803208843106 150.9309961044346,126.15831981091469 150.84566945495317,124.3102134069195 150.88223801902495,124.07398758783529 151.10164940357208,123.55984771437943 151.4551455231267,122.62883304883144 151.75988355727168,121.53106183296768 151.94272637774702,120.94743325660238 152.13775871961843,120.26653029126464 152.1133796768263,120.15536215752945 151.85739972820738,119.9469216777652 151.7842626000056,119.82185724654119 151.75988355727168,119.53003982220253 151.75988355727168,118.57120702012617 151.8208311640774,118.33497188102046 152.04024254862452,117.90418916914496 152.72285574511625,117.05651623649464 152.89350904425373,116.76469326413644 153.2591946851462,116.37559505687386 154.02713453111937,115.40284498472465 155.233897146245,114.1938465415733 155.5630142231239,113.88812120535295 155.94088938547065,113.5962918758014 156.29438550502528,113.42953199599287 156.66007114597596,113.41563533074805 157.00137774419272,113.44342865992803 157.4402005133452,113.22108187734557 158.4519307866576,112.8041807438276 158.79323738481617,112.63741995579039 158.9760802052915,112.45676221961912 159.2442496753647,111.97037489146169 159.48804010264575,111.47008908548742 159.91467335046036,110.24716098114732 160.0975161708193,109.59400198512594 160.24379042722285,108.94084005556942 160.3291170768207,108.30157234764192 160.3900646836264,107.7039934706554 160.40225420502247,107.14810393864173 160.35349611955462,105.93903686908016 160.37787516223034,105.73057601344772 160.34130659815855,105.45262774106232 160.37787516223034,104.9523195119109 160.35349611955462,104.35472687112633 160.3656856409507,103.78492694960732 160.4266332477564,102.57583191515005 160.3656856409507,102.47854796962929 160.18284282041714,102.40905939725053 159.68307244445896,102.29787761239277 159.0126487694215,102.04771828558296 158.92732211982366,101.7141718469502 158.8176164275501,101.45011370707653 158.80542690627044,101.25554424451548 158.8176164275501,100.36608052847441 158.89075355575187,99.99083639128366 159.1101649403572,99.54610134496761 159.46366105991183,98.62883101546322 159.64650388038717,98.37866537577065 160.2925485127489,97.86443465348566 160.86545601690887,97.08613604662241 161.23114165785955,96.78037473968288 161.35303687147098,96.6274938450515 161.63339586282382,95.94647699770576 161.8040491619613,95.62681492841511 162.41352523025125,94.75121522610425 162.5597994865966,94.64002758494462 162.71826326433802,94.5566367982683 162.87672704207944,94.25087017125043 163.0230012984248,93.86171171581373 163.14489651215263,93.06949306966271 163.19365459762048,93.0 163.29117076849798,93.013898616613 163.8396992298658,93.19458051136462 165.54623222106602,93.68103065023024 170.86086353607243,95.2654569602164" stroke="#4DD2FF" stroke-linecap="round" stroke-linejoin="round" stroke-width="0.5"><title>2025-08-03 12.1km</title><desc>15407075422</desc></polyline><polyline fill="none" points="62.47710155748064,199.15891320027004 62.1666217832244,198.99128557702352 62.133939701656345,199.04716146743158 62.18296282395022,199.21478904270043 62.444419476029,199.38241647397808 64.12754667375702,199.95979874607292 64.37266228505177,200.10880034546426 64.35632124426775,200.2950521845487 63.83340794011019,202.26931074995082 63.637315451109316,203.14468315600243 63.49024608434411,203.9083026863227 63.29415359522682,204.65329447030672 62.85294549487298,206.72063177386008 62.77124029112747,206.96275092626456 62.67319404653972,207.0 61.34956974547822,206.86962821090128 61.10445413412526,206.62750894294004 60.1566737703979,206.27364178019343 59.55205526249483,205.9383986130415 57.509425168216694,205.04441401836812 56.97017082333332,204.83954197185813 56.57798584521515,204.61604494863423 56.545303763705306,204.57879541987495 56.10409566335147,204.29942372757068 55.401430910860654,203.98280199272267 54.24121701734839,203.34955698187696 53.718303713190835,202.9211841916549 53.30977769434685,202.47418549488066 52.852228553267196,201.78506049787393 52.525407738168724,201.13318326078297 52.32931524905143,200.53717930970015 52.16590484161861,199.21478904270043 52.13322275999235,198.432525792683 52.13322275999235,197.09149578183133 52.08419963781489,196.25334734466742 52.11688171926653,195.5083234889753 52.08419963781489,193.85063520319818 52.018835474795196,193.45949321694206 51.87176610797178,193.08697631047107 51.6756736189127,192.63995508385415 51.52860425214749,192.5468255327287 51.07105511100963,192.50957369981916 49.35524583182996,192.60270326872705 48.44014754961245,192.58407735850778 47.86821112316102,192.4723218598083 47.47602614510106,192.49094778072322 47.100182207650505,192.4723218598083 46.31581225147238,192.5281996171543 44.71439025760628,192.50957369981916 42.70444224483799,192.56545144655684 41.08667921012966,192.58407735850778 39.64866762369638,192.63995508385415 33.66784670762718,192.69583279320796 32.45860969182104,192.7517104865401 30.33427439373918,192.73308459050895 29.647950682090595,192.77033638072317 28.86358072591247,192.73308459050895 28.16091597347986,192.7517104865401 27.96482348436257,192.69583279320796 27.883118280617055,192.58407735850778 27.850436199165415,192.0066732595442 27.866777239833027,190.57246858760482 27.9158003621269,189.97643237594457 28.06286972889211,189.1941320845799 27.55629746557679,188.97061713945004 25.23586967837764,188.26281812375237 25.10514135239646,188.16968648310285 25.08880031167064,188.09518113860395 25.333915923023596,187.5922693189641 25.57903153426014,186.8472123882675 26.62485814257525,184.03459682821995 26.75558646855643,183.62480839513591 29.4355171523639,176.3043517901533 29.353811948443763,176.04356709761487 29.0269911334035,175.76415454006928 28.91260384808993,175.70827198051848 28.16091597347986,175.5965068134101 27.47459226177307,175.46611403751012 26.918996876105666,175.29846605469356 26.314378368260805,175.09356276885956 26.069262756907847,174.9631696567376 25.137823433906306,174.72101078862033 25.023436148650944,174.6278726823657 24.95807198563125,174.4788516198314 25.023436148650944,174.23669215044356 25.31757488218136,173.6592337407783 25.480985289730597,172.83961241731595 25.660736738005653,172.33666126354365 25.775124023319222,171.57291814249766 25.840488186338916,170.82780002013897 25.856829227064736,169.3934396199911 25.82414714555489,168.62968497289694 26.13462691992754,167.06491001293762 26.314378368260805,166.7854845917027 26.75558646855643,166.20800411920936 27.082407283654902,165.98446283198427 27.71970787306782,165.6305219365895 28.78187552210875,164.97852386863087 29.353811948443763,164.49418103555217 29.8603842118755,163.97257971618092 30.04013566020876,163.63726384553593 30.121840864012484,163.0970315078157 30.10549982317025,162.79897164634895 29.974771497189067,162.50091132929083 29.713314845168497,162.18422174324223 29.549904437561054,162.05381999950623 29.288447785540484,161.90478932845872 29.059673214913346,161.7185008294473 28.97796801122604,161.45769663182728 29.0269911334035,161.14100535154284 29.56624547834508,159.70657369995024 29.69697380438447,159.55754123489896 29.909407334169373,159.5016540311044 30.448661679052748,159.55754123489896 30.677436249621678,159.48302495965618 30.873528738622554,159.33399232380907 30.955233942426275,159.20358867396135 30.987916023936123,158.90552286113962 30.840846657170914,158.12309793458553 30.840846657170914,157.58285031968262 31.00425706472015,156.91219602557248 31.216690594505053,156.29742756285123 31.49448828730965,155.8130631663953 32.850794669881,154.0805191295949 33.210297566547524,153.503001029414 33.34102589258691,153.29807484075718 33.34102589258691,153.167667154019 33.27566172950901,153.03725938002754 33.14493340352783,153.0 31.821309102408122,153.503001029414 30.51402584213065,154.15503746953618 30.138181904738303,154.41585143502743 29.909407334169373,154.7511831636948 29.59892755979672,155.3286975667288 29.337470907717943,156.11113370663952 29.23942466324661,156.63275605550734 29.206742581678554,157.1543770089338 29.23942466324661,157.28478202932456 29.10869633720722,157.60147957273875 26.98436103912536,159.48302495965618 26.543152938829735,159.87423508688516 25.726100901083555,160.4703632954188 25.284892800729722,160.89882931954344 25.08880031167064,161.23414989913 24.941730944847222,161.81164510117378 24.778320537297986,162.55679767347465 24.337112436944153,163.9539510718023 24.157360988669097,164.64320972771384 23.97760954039404,165.16480925331416 23.895904336648528,165.57463647329132 23.389332073216792,167.04628166394832 22.866418769117445,168.29437710985076 22.866418769117445,168.7414541324688 22.96446501353057,169.44932398889796 22.91544189135311,170.0640509903169 23.029829176608473,171.20035943716357 23.07885229884414,172.97000694918097 23.193239584215917,173.60335057809425 23.11153438029578,173.8827662311669 22.85007772827521,174.38571339794726 21.787910079292487,175.7455270220089 21.575476549507584,176.17395948745252 20.44794473744696,177.55238799165818 19.810644147975836,178.1857167410053 18.519701928424183,179.3964865677117 17.310464912618045,180.25333451914776 16.68950536387274,180.7562652593915 16.444389752519783,180.97978961655463 16.264638304244727,181.855257549425 16.166592059773393,182.4885723281477 16.08488685602788,182.76797525334405 16.06854581524385,183.3267799031455 16.08488685602788,183.6620619246387 15.627337714890018,186.13940566849487 15.709042918635532,186.80995946707844 15.807089163165074,187.05210332786373 15.986840611498337,187.23836763169675 16.248297263577115,187.4060053530702 16.934620975225698,188.26281812375237 17.16339554579463,188.61671795256552 17.4248521978152,189.3245156842895 18.062152787286323,190.57246858760482 18.143857991031837,190.87048601060815 18.013129665050656,191.8762914523104 18.029470705776475,192.19293283301522 17.947765501972754,193.10560217266902 17.915083420521114,193.27323485258967 17.73533197218785,193.47811904357513 17.88240133895306,193.42224155829172 17.9804475834826,193.1801056038239 17.96410654275678,192.49094778072322 18.09483486879617,191.0753727248375 18.045811746502295,190.53521637772792 17.88240133895306,190.27445070935937 17.604603646148462,189.90192772138107 17.196077627304476,188.7657282147411 16.869256812147796,188.18831281476014 16.444389752519783,187.6481484740798 15.839771244674921,187.05210332786373 15.72538395941956,186.80995946707844 15.676360837183893,186.43742986350844 15.72538395941956,186.30704433418578 15.97049957071431,186.1207791412162 16.493412874871865,185.80412790479022 17.39217011636356,185.6551153804612 18.76481753977714,185.00318424803845 18.83018170268042,184.89142440659634 18.91188690654235,184.27674413405475 19.02627419179771,183.64343516080407 19.28773084387649,183.01012413146964 19.50016437366139,182.35818415944232 20.170147044584155,181.16605971854005 21.036222204566002,179.9739279920177 21.918638405331876,178.9866883908253 22.784713565255515,177.92493456385273 23.928586418100167,176.37886163832445 24.25540723314043,175.89454711675353 24.451499722257722,175.46611403751012 24.680274292768445,175.11219034918759 24.876366781885736,174.92591446581355 25.10514135239646,174.88865926783183 26.445106694300193,175.20532822419773 26.902655835379846,175.3916038407333 27.45825122098904,175.52199666645902 27.866777239833027,175.67101693195582 28.111892851185985,175.8572921037412 28.177257014263887,175.8572921037412" stroke="#4DD2FF" stroke-linecap="round" stroke-linejoin="round" stroke-width="0.5"><title>2025-07-26 10.7km</title><desc>15407075432</desc></polyline><polyline fill="none" points="176.60934848943725,202.93494724515767 176.70168677152833,202.9481029490562 176.7709404830821,202.92179153996403 176.7363136272761,202.89548012590967 176.56317934842082,202.84285728263785 175.87064223282505,202.64552144146 175.6282542422996,202.5271198011178 175.52437367499806,202.46134106810496 175.42049310763832,202.31662774491997 175.40895082236966,202.2113815962657 175.43203539290698,202.05351222257013 175.47820453398162,201.80355201111524 175.59362738655182,201.3957212191599 175.87064223282505,200.60636787077237 176.02069194120122,200.09328576986445 176.37850278423866,199.04080368741415 176.4246719252551,198.96186720718106 176.52855249255663,198.9355550370674 177.15183589665685,199.04080368741415 177.26725874928525,199.01449153236172 177.29034331982257,198.98817937228887 177.30188560509123,198.86977458979527 177.26725874928525,198.80399411113467 177.26725874928525,198.60665248670557 177.23263189347927,198.54087188243284 177.15183589665685,198.47509124674252 176.84019419463584,198.31721759303764 176.55163706315216,198.2251245448424 175.6859656686429,198.01462591787276 174.69332913623657,197.8172831631091 174.1392994437483,197.79097077442566 173.7122348890989,197.83043935552996 171.18447441712487,197.88306411272788 169.76477333012735,197.88306411272788 168.7836790830479,197.92253266747866 168.44895281048957,197.89622029892053 168.28736081684474,197.8435955467139 168.26427624630742,197.8172831631091 168.25273396103876,197.72518978077278 168.26427624630742,197.5015341675753 168.22964939050144,195.73858897967148 168.183480249485,194.3966305092763 168.1603956790059,192.58101883532072 168.13731110841036,192.26525784120895 168.09114196739392,192.04159336590965 168.03343054110883,191.92318261433684 167.91800768848043,191.81792852754006 167.22547057288466,191.47585219010944 165.78268491534982,190.56803010009753 165.29790893441532,190.29173523330246 164.9862672323943,190.17332297793473 163.4511432927684,189.7259868725232 158.73034862132045,188.2918701544695 158.41870691929944,188.1734561803023 156.13333443779266,187.5419132659008 152.5552260071272,186.43670619957265 152.04736545565538,186.26566145657853 150.85851007385645,185.9630433141865 150.37373409298016,185.8183126632357 150.20059981406666,185.75252595345955 150.1313461024547,185.6998965630628 149.62348555098288,185.54200827109162 149.46189355739625,185.44990668389073 149.34647070476785,185.31833288105554 149.32338613423053,185.18675895260822 149.3349284194992,185.0551848985051 149.57731641002465,184.22626546781976 149.73890840361128,183.33155318353965 149.83124668570235,182.31841608135437 149.84278897097101,181.39737588611024 149.86587354150834,180.9894846893003 149.98129639407853,180.3710667000123 150.08517696143826,180.0158040463284 150.17751524352934,179.81843550947087 150.29293809615774,179.63422461990558 150.5584106571041,179.34474986721762 150.77771407703403,179.1868542911252 151.36637062532827,178.85790459300915 151.97811174415983,178.45000587630784 152.50905686611077,177.94999934987572 152.64756428921828,177.778944068923 152.7283602859825,177.64736293900933 152.7860717123258,177.51578168338165 152.82069856813177,177.25261879502796 152.8091562828631,177.0684044740483 152.76298714184668,176.8841899066756 152.60139514820185,176.64734224374115 152.1858728788211,176.25259523380373 152.1512460229569,176.18680395546835 152.10507688199868,176.06837957529933 152.10507688199868,175.8578470924549 152.27821116085397,175.30519779397582 152.4398031544988,174.9367636963434 152.5552260071272,174.77886306705477 152.71681800077204,174.7130710847705 153.1554248406901,174.66043747631193 153.30547454906628,174.56832861312432 153.39781283109915,174.46306126544368 153.42089740163647,174.39726913231425 153.43243968684692,174.27884321345482 153.3516436900827,173.62091958771634 153.37472826056182,173.25248098444717 153.43243968684692,172.97615138519905 153.61711625108728,172.42349052338977 153.7209968183888,172.19979382975725 153.87104652676499,171.96293811105716 154.85214077396085,170.66022437672655 155.27920532849384,169.97596576185606 155.37154361064313,169.91017148506944 155.45233960746555,170.00228346373478 155.38308589585358,169.93648919955012 155.38308589585358,169.84437717689434 155.87940416205674,168.8706177403801 156.19104586407775,168.1205551014864 156.26029957568971,167.8047380313219 156.44497613981366,167.2125790725113 156.5488567071734,166.81780501865433 156.67582184507046,166.094049647043 156.745075556566,165.4492462027265 156.76816012710333,165.13342300588556 156.76816012710333,164.22542728002009 156.73353327129735,163.6990502045228 156.73353327129735,162.8963212901872 156.69890641554957,162.5541731173289 156.6873641302227,162.05410887378093 156.745075556566,161.31716878344014 156.73353327129735,160.9618569734157 156.81432926811976,160.38282835535938 157.13751325546764,158.94840606299113 157.52995095431106,157.71136933221715 157.6338315216126,157.461328642632 158.2571149257128,156.2111183826928 158.55721434246516,155.69787088352314 159.61910458636703,154.10547543872963 159.80378115054918,153.75014501588885 159.83840800629696,153.67118257514085 159.79223886528052,153.5658992503304 159.6306468716357,153.31585103124962 159.37671659589978,153.0658023579308 159.2035823170445,153.0 158.90348290023394,153.0 158.78806004766375,153.0658023579308 158.70726405084133,153.1447651459457 158.2917417814606,153.77646581937734 157.66845837741857,154.90825560993108 157.24139382276917,155.31622406680253 156.7219909860869,156.02687591087306 156.2025881493464,156.54012218344724 156.01791158522246,156.77700443311187 155.74089673894923,157.36920827410358 155.55622017482528,157.9350895642856 155.44079732213868,158.34304905156023 155.37154361064313,158.84312677392154 155.37154361064313,159.14580451296933 155.39462818112224,159.43532172759296 155.51005103369243,159.8037973021128 155.53313560428796,160.01435433048755 155.5215933190193,160.52758573814936 155.55622017482528,161.15925253665773 155.56776246003574,161.93567233957583 155.51005103369243,162.3436199729913 155.4061704663909,162.85684269822377 155.30228989908937,163.43586091219913 155.24457847274607,163.93592013751913 155.24457847274607,164.18594906914223 155.3253744695685,164.7649616940471 155.2676630433416,165.75190941995243 155.30228989908937,166.17300496336247 155.44079732213868,166.8309641720116 155.5793047453044,167.67314737163542 155.61393160105217,168.06791897343646 155.61393160105217,168.27846336498624 155.49850874848198,169.13379664543027 155.5215933190193,169.2259091434098 155.62547388632083,169.39697504753713 155.64855845685815,169.43645176450082 155.62547388632083,169.5417229543673 155.53313560428796,169.68647070899897 155.37154361064313,169.8838537655829 155.2907476138207,169.97596576185606 155.11761333490722,170.06807769650186 154.13651908776956,170.44968362653162 153.17850941116922,170.89708233586862 153.07462884380948,170.91024109945283 152.94766370597063,170.80497095569444 152.83224085334223,170.81812972808257 152.5321414366481,170.98919365441543 152.243584305048,171.19973357979325 151.7588083241717,171.63397115933185 150.62766436865786,172.79193134434172 149.05791357328417,174.76570467313286 148.81552558281692,175.14729758710018 148.71164501545718,175.39730616440647 148.66547587444074,175.67363090600702 148.65393358917208,176.02890475926688 148.6770181597094,176.41049417351314 148.71164501545718,176.67365867082844 148.74627187120495,176.85787351979525 148.82706786808558,176.9894554039056 148.9655752911931,177.1605116653518 148.9886598617304,177.23946063742915 148.9886598617304,177.33156771434005 148.89632157958113,177.68683729117038 148.74627187120495,178.12105441842868 148.45771473977948,179.12106441438664 148.20378446398536,179.89738295815187 147.86905819148524,180.73948626198398 147.79980447993148,181.05527367371542 147.83443133562105,181.63421538166585 147.83443133562105,182.0289469693089 147.89214276202256,182.69998807246157 147.9383119029808,184.05521798037807 147.98448104405543,184.54204488666437 147.94985418830765,184.83150871805265 147.86905819148524,185.0288700725796 147.78826219466282,185.17360155287315 147.23423250217456,185.94988598856435 146.96875994117,186.3577624984464 146.65711823909078,186.76563780076685 146.12617311713984,187.41034146104357 145.00657144695288,188.4892265519302 143.50607436307473,189.7259868725232 143.3444823694881,189.8970273196319 143.25214408739703,190.04175368594588 143.18289037584327,190.25226449283946 143.0905520937522,190.6338145105692 142.96358695585513,191.84424205675896 142.75582582119387,193.0415023213427 142.70965668011922,193.5019842684269 142.72119896538788,193.6861766163638 142.79045267699985,194.05456057362608 142.8597063885536,194.18612603400834 143.0328406674089,194.40978702832945 142.84816410328494,194.1334998649254 142.79045267699985,194.00193435433903 142.70965668011922,193.72564637320465 142.69811439490877,193.52829747606302 142.73274125065655,193.1072855508537 142.975129241182,191.85739881951304 143.06746752321487,190.7522263701976 143.1713480905164,190.16016605439654 143.2636863726657,189.936498161871 143.402193795715,189.7786147250299 144.45254175446462,188.96288075236953 145.0296560174902,188.47606946757878 146.0800039761234,187.44981301568623 146.69174509489676,186.67353703160188 147.21114793163724,185.93672866166162 147.6497547714971,185.37096241727704 147.8228890504688,185.10781453519303 147.85751590621658,185.0288700725796 147.2226902169059,185.91041400415997 146.69174509489676,186.69985154335154 145.9414965530159,187.60769912123214 144.63721831864677,188.8049961998331 143.39065151056275,189.7786147250299 143.286770943203,189.88387036971108 143.25214408739703,189.96281205042033 143.2636863726657,190.00228287382924 143.30985551368212,190.04175368594588 143.15980580530595,190.5285594387824 143.06746752321487,190.97589293848432 142.99821381166112,191.77845822426025 142.72119896538788,193.23885191565205 142.69811439490877,193.48882766270253 142.70965668011922,193.7388029563008 142.77891039167298,194.02824746651459 142.8597063885536,194.19928257309948 143.2290595168015,194.52819564304082 143.59841264522402,194.98867262189742 143.6907509272569,195.15970653641853 144.0023926292779,195.9622474541393 144.33711890183622,196.60690808483923 144.38328804291086,196.77793999089045 144.39483032812132,196.9752842340822 144.3140343312989,197.9356888498587 144.29094976076158,198.47509124674252 144.32557661656756,198.72505749524862 144.40637261344818,198.90924286191876 144.025477199757,198.81715020934644 144.09473091136897,198.81715020934644 144.12935776711674,198.86977458979527 144.18706919340184,199.1855204503372 144.1986114787287,199.5144216191693 144.16398462292273,200.172221602028 143.99085034406744,201.71146129260887 143.8869697767077,202.93494724515767 143.78308920940617,203.73744288561284 143.72537778300466,204.47415608116717 143.59841264522402,205.56606303837907 143.5176166484016,206.44747559791722 143.50607436307473,206.96053404471604 143.52915893361205,206.98684468283318 143.58687035989715,207.0 143.8292583503644,206.894757427508 143.97930805874057,206.76320409885375 144.0831886261003,206.56587387052423 144.38328804291086,206.55271851194266 144.47562632500194,206.47378633396875 144.55642232176615,206.35538798224297 144.70647203014232,206.00019231684564 145.24895943736192,204.50046719385136 145.67602399201132,203.46117442201648 146.0569194056443,202.42187381318945 146.61094909813255,201.06682454005932 147.0495559379342,199.856478002097 147.19960564636858,199.50126558753254 147.38428221049253,199.17236438728287 147.5343319189269,199.01449153236172 147.74209305364639,198.88293068177882 148.00756561459275,198.81715020934644 148.38846102822572,198.79083801164234 149.0809981438215,198.79083801164234 149.49652041314403,198.81715020934644 150.4429878044757,198.9355550370674 150.75462950655492,198.9487111227354 151.73572375363437,198.90924286191876 153.5247779689962,198.89608677246724 154.64437963918317,198.8566184965457 157.12597097014077,198.8566184965457 158.7418909065891,198.80399411113467 160.15004970831797,198.73821360102738 160.7387062566122,198.73821360102738 161.50049708376173,198.685589170389 162.52776047197403,198.69874527992215 166.6714408803964,198.61980860379117 168.11422653787304,198.64612083417887 168.09114196739392,198.65927694751008 168.841390509333,198.5934963683394 170.13412645849166,198.58034024875087 171.49611611914588,198.5145596319344 173.56218518078094,198.5145596319344 174.12775715847965,198.47509124674252 174.4855680015753,198.5145596319344 174.46248343103798,198.5277157578239 174.7394982773112,198.5145596319344 175.32815482554724,198.6329647196253 176.21691079059383,198.84346240207378 176.34387592843268,198.88293068177882 176.37850278423866,198.92239895013336 176.39004506950732,198.98817937228887 176.36696049897,199.1197401223908 176.1938262200565,199.61966982747253 175.96298051485792,200.3827169334254 175.75521938019665,201.00104511006793 175.63979652756825,201.06682454005932" stroke="#4DD2FF" stroke-linecap="round" stroke-linejoin="round" stroke-width="0.5"><title>2025-05-17 17.3km</title><desc>15568347487</desc></polyline><polyline fill="none" points="52.20202989986865,235.87183242436004 51.505829104367876,235.6269970684516 51.34288849265431,235.58478400752938 51.23179262105259,235.58478400752938 51.09107118364773,235.69453792402783 51.06885200930992,235.69453792402783 51.04663283503032,235.67765271497046 51.03182005212875,235.63543967822625 51.039226443564985,235.55945616128884 51.24660540392506,235.05289771279786 51.305856535444036,234.85027352068573 51.305856535444036,234.8080600888352 51.29104375257157,234.76584663685935 51.261418186768424,234.72363316473638 51.209573446714785,234.68986237253557 51.11329035801464,234.664534269883 51.00960087776184,234.664534269883 50.87628583185142,234.68986237253557 50.80222191743087,234.72363316473638 50.73556439447566,234.78273202007404 50.602249348536134,234.9937990380713 50.47634069400374,235.1373243224516 50.41708956248476,235.25552144050016 50.35043203952955,235.4919152025177 50.34302564806421,235.56789877750998 50.38746399668162,235.68609531989205 50.38005760524538,235.74519353181677 50.00973803320085,236.6992020581456 49.424633109301794,238.3117063387399 48.9580304484989,239.52739692832984 48.66177479084581,240.33784803541494 48.23220408722409,241.3593435363946 47.92854203810566,242.1191259256375 47.854478123714216,242.24575568915316 47.78041420929367,242.32173346020863 47.691537512029754,242.37238527133013 47.587848031835165,242.40615312929003 47.40268824575469,242.42303705342783 45.914003566023894,242.42303705342783 45.232615553424694,242.45680489205552 42.795912769128336,242.4905727177611 41.9367713619431,242.49901467218297 41.122068303404376,242.47368880652357 38.31504594706348,242.52434053061006 35.315457413264085,242.49901467218297 34.12302839115728,242.47368880652357 33.9156494307972,242.44836293358821 33.80455355916638,242.44836293358821 33.80455355916638,242.4652468497079 33.61198738167877,242.4905727177611 33.2342614181689,242.4905727177611 32.68618845148012,242.50745662578265 30.471677410503617,242.51589857859653 29.805102180776885,242.49901467218297 28.76820737894741,242.51589857859653 28.35344945822726,242.49901467218297 28.012755451898556,242.50745662578265 27.79797010013135,242.53278248178685 27.27211630778038,242.49901467218297 26.731449732527835,242.49901467218297 26.057468111335766,242.50745662578265 25.5538334933226,242.5412244321633 22.8727197915141,242.5412244321633 22.235770127532305,242.5665502784832 20.835962145094527,242.55810833052237 20.34714030995383,242.53278248178685 20.287889178434853,242.5412244321633 20.243450829788344,242.5665502784832 20.199012481141835,242.5749922256582 20.065697435173206,242.55810833052237 19.154711287876125,242.53278248178685 17.769716088310815,242.5412244321633 17.184611164440867,242.5665502784832 15.814428747777129,242.59187611756352 15.281168563960819,242.61720194936788 14.333150459482567,242.62564389171166 13.98505006171763,242.650969713839 13.799890275666257,242.64252777394722 13.78507749279379,242.63408583321143 13.78507749279379,242.86201794965018 13.755451927019749,242.91266945127427 13.71101357837324,242.9548790138142 13.71101357837324,243.01397236751654 13.696200795500772,243.0224142719744 13.614730489614885,243.03929807845998 13.39994513784768,243.03085617561737 13.059251131518977,243.07306568173954 13.06665752295521,243.0899494785699 13.044438348646509,243.09839137575182 13.0,243.0899494785699 13.022219174308702,243.06462378213473 13.029625565744936,243.1237170625027 13.022219174308702,243.07306568173954 13.14072143737576,243.05618188170774 13.192566177487606,243.00553046227287 13.266630091879051,242.9886466493408 13.636949663981795,242.9548790138142 13.718419969809474,242.9633209238964 13.770264709921321,242.97176283320732 13.777671101357555,242.9548790138142 13.903579755860846,242.93799519121967 14.066520367574412,242.94643710290256 14.362776025227504,242.92111136541644 15.118227952276357,242.90422753633902 16.17734192838543,242.90422753633902 16.895761898194905,242.88734370407474 17.94006309148972,242.88734370407474 18.3400082293374,242.87045986860176 19.199149636522634,242.87890178673842 19.887944040587172,242.85357602989097 20.191606089676498,242.80292449438275 20.384172267164104,242.81136641898775 20.673021533410065,242.85357602989097 20.880400493741035,242.86201794965018 21.339596763107693,242.85357602989097 22.91715814016061,242.85357602989097 23.25044575505308,242.8366921879424 23.820737896021456,242.85357602989097 26.98326704153442,242.87890178673842 28.10903854065691,242.86201794965018 28.508983678504592,242.90422753633902 28.820052119059255,242.86201794965018 29.560691263206536,242.81980834277783 30.249485667271074,242.8451341093023 32.826909888884984,242.82825026574574 33.46385955286678,242.8451341093023 33.64161294745281,242.81980834277783 34.01933891096269,242.8366921879424 34.50816074613249,242.81980834277783 36.293101083516376,242.81136641898775 37.56700041145086,242.82825026574574 38.24838842407917,242.81980834277783 38.37429707858246,242.82825026574574 38.352077904273756,242.82825026574574 38.75942943349946,242.79448256897012 41.07022356329253,242.7860406427717 42.0848991907842,242.74383099964325 44.5956658894429,242.6931794013144 45.21780277052312,242.6931794013144 46.03991222055629,242.71006327062787 47.41009463722003,242.6762955287195 47.66191194622661,242.71850520409498 47.88410368945915,242.66785359124333 48.439583047584165,242.64252777394722 49.098751885903766,242.65941165293043 49.4468522836105,242.6847374654244 49.854203812923515,242.74383099964325 50.09120833905763,242.7522729298944 50.49855986828334,242.74383099964325 51.13550953226513,242.7522729298944 52.21684268274112,242.71006327062787 55.56453161430545,242.71850520409498 56.03113427510834,242.71006327062787 56.2977643670456,242.6847374654244 57.564257303543855,242.66785359124333 59.326978466589935,242.63408583321143 60.03058565352694,242.59187611756352 63.111644493212225,242.55810833052237 65.05952544233878,242.49901467218297 65.61500480043469,242.53278248178685 66.57042929637828,242.71850520409498 66.6593059937004,242.74383099964325 66.69633795088157,242.76915678793011 66.71115073381225,242.81136641898775 66.69633795088157,242.89578562062525 66.54080373060424,243.31788041995605 66.44452064187499,243.7399732046033 66.30379920449923,244.17050576940528 66.25195446438738,244.40687569803413 66.14085859278566,244.71077896370844 66.11863941844786,244.83740501615102 66.1482649842219,244.92182228375168 66.27417363872519,245.107539988785 66.37786311891978,245.09909828339005 66.48155259908526,245.13286510015314 66.91852969414322,245.2932573038197 66.96296804281883,245.31858236201515 66.94815525988815,245.335465730117 66.95556165135349,245.31858236201515 67.0,245.2932573038197 66.98518721709843,245.20039869505126 66.96296804281883,245.149748503718 66.94074886845192,245.208840390791" stroke="#4DD2FF" stroke-linecap="round" stroke-linejoin="round" stroke-width="0.5"><title>2025-05-02 13.7km</title><desc>15568393092</desc></polyline><polyline fill="none" points="153.90847885544645,248.1642751841573 153.38882302318234,248.0458033621544 152.52272996946704,247.75620514625916 152.37260717339814,247.79569584787532 152.21093647013186,247.9404949903983 152.16474484052742,247.9404949903983 152.06081367412116,247.86151365880505 152.04926576669095,247.82202297600452 152.08390948892338,247.70355085980555 152.53427787683904,246.55831515343743 152.49963415472303,246.4661693381786 152.4534425251186,246.40035086096032 152.16474484052742,246.15024036096293 152.1070053036674,246.12391291355016 152.1070053036674,246.13707663789683 151.85295134119224,246.12391291355016 151.35639132373035,246.05809427289933 150.68661269557197,245.86063816248497 150.29398384451633,245.7948193961056 149.64730103104375,245.47888888012676 149.5549177720095,245.4130699315283 149.48563032766106,245.32092335063498 149.45098660554504,245.22877670809976 149.46253451291705,245.07081089193525 149.79742382705444,243.99137296920526 149.93599871563492,243.24102699340438 149.98219034518115,242.31954389040766 150.00528615986696,241.76665107131703 149.99373825255316,241.17426344663545 150.01683406729717,240.8583223389869 150.12076523376163,240.34491649428674 150.21314849279588,240.0289734853577 150.3863671036088,239.69986541416438 150.5595857143635,239.47607147686358 150.83673549152445,239.25227717611415 151.57580156403128,238.83101633004844 151.9453346002265,238.5677276472852 152.2917718217941,238.2781095152459 152.54582578421105,238.0279842750606 152.68440067279153,237.8700102052535 152.83452346880222,237.65937783046684 152.90381091303425,237.47507423842035 152.92690672789467,237.2776058305608 152.91535882046446,237.08013713972468 152.84607137617422,236.8826681659266 152.73059230239596,236.672034282019 152.58046950632706,236.51405865776178 152.44189461774658,236.43507077771937 152.26867600699188,236.36924750977778 152.1416490257834,236.2770948818361 152.1070053036674,236.1454481635883 152.1185532110394,235.85582494073606 152.1416490257834,235.86898964586726 152.33796345128212,235.63202476067818 152.53427787683904,235.1054346679739 152.67285276541952,234.8684684697364 152.75368811708177,234.80264445346256 152.86916719091823,234.76315002862248 153.1578648755094,234.7368204057566 153.28489185671788,234.697325961999 153.44656256010057,234.59200739009248 153.52739791176282,234.4866887376411 153.56204163387883,234.35504030887387 153.58513744873926,234.22339175436355 153.53894581913482,233.47299259188003 153.53894581913482,233.14386886298598 153.60823326342506,232.76208435255103 153.71216442988953,232.4592889886262 153.839191411098,232.20915318613697 154.05860165134072,231.8668613521586 154.48587422457058,231.28759631127468 154.94779051985824,230.73465922778996 155.68685659242328,229.57611719072156 155.894718925294,229.15482676192187 156.13722498033894,228.562384916906 156.29889568372164,228.11476050002966 156.43747057230212,227.70663108766894 156.65688081254484,226.85087194303924 156.79545570118353,226.17942643116112 156.88783896021778,225.54747472464805 156.899386867648,224.73119948004023 156.84164733072976,222.47983462610864 156.86474314547377,221.67670726563665 156.934030589764,220.76824608289462 157.1187971078907,219.66228525202314 157.37285107030766,218.6748127208557 157.65000084752683,217.84533032382024 158.1350129576167,216.75251255610783 158.72395623417106,215.68601938684878 159.94803441670956,213.8031779537414 159.97113023151178,213.7241770512337 159.95958232413977,213.6451761033968 159.75171999121085,213.32917185897531 159.53230975096812,213.0790013178921 159.46302230667789,213.03950066459947 159.38218695501564,213.01316688947554 159.03574973350624,213.0 158.95491438178578,213.05266755029152 158.85098321537953,213.13166883797385 158.23894412402296,214.05334717937512 157.961794346862,214.6590181596548 157.82321945828153,214.88285241306585 157.73083619924728,214.98818605355336 157.32665944081964,215.37001982489892 156.7723598863813,216.12051760080794 156.2296082394314,216.6866798835399 156.02174590656068,217.05534244446608 155.906266832666,217.27917280363909 155.7215003145975,217.8321638963098 155.5713775185286,218.3851527688239 155.50209007429658,218.8723077933828 155.46744635206414,219.49112385378976 155.3866110004601,220.03093984891893 155.28267983399564,220.33376252975722 155.25958401925163,220.4522581801284 155.23648820444942,220.67608301945438 155.24803611182142,221.04473490317469 155.16720076010097,221.4397179694788 155.15565285278717,221.71620544203324 155.07481750106672,222.0585224962997 155.0517216863227,222.54566453002917 154.94779051985824,223.03280484105926 154.89005098299822,223.65160221175756 154.93624261248624,224.0334119687177 154.90159889037022,224.41522066749167 154.93624261248624,224.5600443798612 155.13255703798495,224.9286858698324 155.23648820444942,225.27099494152935 155.30577564879786,225.784456954294 155.3866110004601,226.11359826366242 155.65221287024906,227.50914867995016 155.68685659242328,227.798789447741 155.66376077762106,228.70720426979824 155.5713775185286,229.2074881359731 155.59447333333082,229.29964549213764 155.61756914813304,229.33914148302574 155.74459612934152,229.44446407008218 155.75614403665531,229.47079470427707 155.7330482219113,229.54978657665197 155.47899425949436,229.93157998804236 155.34041937085567,230.05006738334487 154.09324537351495,230.5635115855548 153.3310834862641,230.95846736221574 153.06548161641695,231.15594482603774 152.93845463526668,231.30076145289058 152.8229755614302,231.47190817935916 152.6151132285013,231.90635660715634 152.4649904324906,232.36713374579267 152.36105926608434,233.10437396269117 152.2917718217941,233.30184835096588 152.17629274795763,233.47299259188003 151.97997832245892,233.68363136585685 150.85983130621025,234.64466668613022 149.93599871563492,235.36872996589227 149.63575312372996,235.64518948724435 149.5202740498935,235.80316610753653 149.3932470686268,236.11911880482512 149.2200284578721,236.80368049719254 149.0121661250014,237.51456788604264 148.97752240288537,237.50140333807212 149.0352619397454,237.50140333807212 149.0583577544894,237.52773243271804 149.0237140323734,237.64621329634974 148.78120797732845,238.38342527004716 148.41167494107503,239.5813863161893 147.97285446047317,240.77933694892272 147.90356701618293,241.04262140647916 147.88047120143892,241.4112188020663 148.0190460900776,243.99137296920526 148.07678562693764,244.62324009624717 148.05368981219362,244.80753412930062 147.97285446047317,245.04448323829274 147.79963584977668,245.33408715167025 146.8296116295969,246.66362458110962 146.1367371866363,247.50609710651042 145.0974255221663,248.506526542551 144.50848224561196,249.00673853773333 143.5500059328042,249.75705312704667 143.3998831367935,249.92817693513643 143.30749987775926,250.1387905611773 143.23821243346902,250.42838377150474 143.15737708174856,250.92858879281266 143.08808963745832,251.91583021900442 142.83403567504138,253.3506084876426 142.81093986029737,253.60070592357079 142.83403567504138,253.96926973901282 142.89177521201782,254.12722535821376 142.96106265619164,254.21936605258088 143.2266645260388,254.45629898377229 143.45762267371174,254.69323150778655 143.65393709921045,254.9564893902134 143.81560780259315,255.19342105460237 144.10430548718432,255.917376395053 144.4391948012635,256.57551431482716 144.49693433823995,256.75979236936837 144.50848224561196,256.94407017757476 144.49693433823995,257.3257877110882 144.4391948012635,257.82596770706004 144.4391948012635,258.1813576541026 144.36990735697327,258.64204696285015 144.27752409793902,260.26102860920946 144.16204502410255,261.09025574906264 143.7463203582447,265.3547736996843 143.66548500664067,266.01286657522724 143.61929337709444,266.78941212895734 143.64238919189665,266.93419132484996 143.66548500664067,266.9736765337002 143.7232245435589,267.0 143.83870361739537,266.960514798644 144.03501804289408,266.8025738803408 144.20823665364878,266.61830924695823 144.5777696899022,266.6577945462486 144.69324876373867,266.63147101466893 144.7509883006569,266.473529719442 144.80872783757513,266.1444847734383 144.87801528180717,265.8680864120688 145.282192040293,264.7756493713241 145.72101252083667,263.6832036760752 146.22912044567056,262.3143438413099 146.8180637221667,260.84017189875885 147.01437814772362,260.4058146596508 147.1760488510481,259.93196883819473 147.3261716470588,259.5634209623677 147.5109381651855,259.22119705274235 147.6610609611962,259.0632472694706 147.88047120143892,258.9316223118367 148.1922647007741,258.8526472770027 148.5387019222835,258.8263222553069 149.31241171702277,258.8394847667514 149.7396842901362,258.8658097859734 150.34017547400435,258.95794731345086 150.755900139804,258.9711098123371 152.74214020970976,258.9711098123371 153.74680815206375,258.9316223118367 154.55516166886082,258.9447848132695 155.0401737789507,258.90529730524577 156.01019799913047,258.9316223118367 156.87629105284577,258.9184598091815 157.52297386631835,258.9447848132695 159.42837858450366,258.8921348000731 159.79791162075708,258.90529730524577 159.77481580601307,258.8921348000731 160.37530698993942,258.8263222553069 160.94115445169155,258.7868347133772 163.4239545390592,258.7605096791376 164.116828982078,258.7868347133772 164.94827831361908,258.7736721968686 165.95294625597307,258.74734716011153 167.0153537351871,258.6683720196743 168.2278840104118,258.6946970715362 168.59741704672342,258.65520949188794 170.74532781989546,258.6288844325027 172.45441811264027,258.53674668511667 173.1819362777169,258.5499092242244 174.4060144603718,258.5104216031614 174.5561372563243,258.5499092242244 174.64852051541675,258.5893968340388 175.04114936647238,258.60255936814065 175.30675123626133,258.64204696285015 176.35761080810335,258.8921348000731 176.49618569674203,258.95794731345086 176.51928151148604,259.01059730150155 176.50773360405583,259.07640975830145 176.04581730876816,260.53743820993986 175.9534340496757,260.892821168105 175.82640706846723,261.2482032103144 175.768667531549,261.5640975900169 175.768667531549,261.61674658290576 175.64164055034053,262.0116133890551 175.65318845771253,262.1958841782762 175.68783217988675,262.30118166154716 175.81485916103702,262.51177638689114 176.77333547384478,262.89347850672493 176.87726664030924,262.97245122719323 176.87726664030924,263.05142390241963 176.83107501082122,263.0250996823597 176.86571873293724,262.94612699202844 177.09667688061018,262.6565600739559 177.16596432490041,262.49861422594404 177.18906013964443,262.4196412341262 177.1544164175284,262.4328034025966" stroke="#4DD2FF" stroke-linecap="round" stroke-linejoin="round" stroke-width="0.5"><title>2025-04-25 12.6km</title><desc>15568441500</desc></polyline></svg>